<svg fill="none" height="48" viewBox="0 0 48 48" width="48" xmlns="http://www.w3.org/2000/svg"><g fill="#000"><path d="m24 4.41c-11.24 0-18.5 6.48-18.5 16.5s7.26 16.5 18.5 16.5h.24c-.08.82-.28 1.72-.6 2.69-.36 1.08 0 2.23.89 2.93.49.38 1.06.57 1.63.57.49 0 .98-.14 1.42-.42 3.65-2.32 5.91-5.03 6.75-8.07 5.2-2.77 8.16-7.9 8.16-14.19 0-10.02-7.26-16.5-18.5-16.5zm8.39 28.32c-.43.2-.73.6-.82 1.06-.44 2.25-2.1 4.43-4.8 6.33.44-1.6.6-3.08.47-4.41-.08-.77-.73-1.36-1.49-1.36-.04 0-.07 0-.11 0-.53.04-1.07.06-1.63.06-9.56 0-15.5-5.17-15.5-13.5s5.94-13.5 15.5-13.5 15.5 5.17 15.5 13.5c0 5.43-2.52 9.62-7.11 11.82z"/><path d="m21.74 20.31-.13-.06c-.5-.26-.91-.67-1.17-1.17l-.06-.13c-.25-.49-.95-.49-1.2 0l-.06.13c-.26.5-.67.91-1.17 1.17l-.13.06c-.49.25-.49.95 0 1.2l.13.06c.5.26.91.67 1.17 1.17l.06.13c.25.49.95.49 1.2 0l.06-.13c.26-.5.67-.91 1.17-1.17l.13-.06c.49-.25.49-.95 0-1.2z"/><path d="m16 20.07-.18-.09c-.7-.36-1.28-.93-1.64-1.64l-.09-.18c-.35-.69-1.33-.69-1.68 0l-.09.18c-.36.7-.93 1.28-1.64 1.64l-.18.09c-.69.35-.69 1.33 0 1.68l.18.09c.7.36 1.28.93 1.64 1.64l.09.18c.35.69 1.33.69 1.68 0l.09-.18c.36-.7.93-1.28 1.64-1.64l.18-.09c.69-.35.69-1.33 0-1.68z"/><path d="m36.58 18.05-.32-.16c-1-.51-1.8-1.31-2.31-2.31l-.16-.32c-.55-1.08-1.65-1.75-2.86-1.75s-2.31.67-2.87 1.75l-.16.32c-.51 1-1.31 1.8-2.31 2.31l-.32.16c-1.08.55-1.75 1.65-1.75 2.87s.67 2.31 1.75 2.87l.32.16c1 .51 1.8 1.31 2.31 2.31l.16.32c.55 1.08 1.65 1.75 2.87 1.75s2.31-.67 2.87-1.75l.16-.32c.51-1 1.31-1.8 2.31-2.31l.32-.16c1.08-.55 1.75-1.65 1.75-2.86s-.67-2.31-1.75-2.87zm-1.36 3.06-.32.16c-1.57.8-2.82 2.05-3.62 3.62l-.16.32s-.06.12-.19.12-.18-.09-.19-.12l-.16-.32c-.8-1.57-2.05-2.82-3.62-3.62l-.32-.16s-.12-.06-.12-.19.09-.18.12-.19l.32-.16c1.57-.8 2.82-2.05 3.62-3.62l.16-.32s.06-.12.19-.12.18.08.19.12l.16.32c.8 1.57 2.05 2.82 3.62 3.62l.32.16s.12.06.12.19-.09.18-.12.19z"/></g></svg>