<svg fill="none" height="48" viewBox="0 0 48 48" width="48" xmlns="http://www.w3.org/2000/svg"><g fill="#fff"><path d="m42.53 39.06-.16-.08c-.65-.33-1.17-.86-1.51-1.51l-.08-.16c-.32-.63-1.23-.63-1.55 0l-.08.16c-.33.65-.86 1.17-1.51 1.51l-.16.08c-.63.32-.63 1.23 0 1.55l.16.08c.65.33 1.17.86 1.51 1.51l.08.16c.32.63 1.23.63 1.55 0l.08-.16c.33-.65.86-1.17 1.51-1.51l.16-.08c.63-.32.63-1.23 0-1.55z"/><path d="m39.26 34.95.32-.16c1.08-.55 1.75-1.65 1.75-2.86s-.67-2.31-1.75-2.87l-.32-.16c-1-.51-1.8-1.31-2.31-2.31l-.16-.32c-.55-1.08-1.65-1.75-2.86-1.75s-2.31.67-2.87 1.75l-.16.32c-.51 1-1.31 1.8-2.31 2.31l-.32.16c-1.08.55-1.75 1.65-1.75 2.87s.67 2.31 1.75 2.87l.32.16c1 .51 1.8 1.31 2.31 2.31l.16.32c.55 1.08 1.65 1.75 2.87 1.75s2.31-.67 2.87-1.75l.16-.32c.51-1 1.31-1.8 2.31-2.31zm-4.99.95-.16.32s-.06.12-.19.12-.18-.09-.19-.12l-.16-.32c-.8-1.57-2.05-2.82-3.62-3.62l-.32-.16s-.12-.06-.12-.19.09-.18.12-.19l.32-.16c1.57-.8 2.82-2.05 3.62-3.62l.16-.32s.06-.12.19-.12.18.08.19.12l.16.32c.8 1.57 2.05 2.82 3.62 3.62l.32.16s.12.06.12.19-.09.18-.12.19l-.32.16c-1.57.8-2.82 2.05-3.62 3.62z"/><path d="m26.77 36.37c-1.16.83-2.13 1.46-2.76 1.87-3.32-2.12-16.27999-10.91-16.27999-19.01 0-5.14 3.17999-8.72 7.71999-8.72 2.83 0 5.29 1.57 7.3 4.67.55.85 1.96.85 2.52 0 2.01-3.1 4.47-4.67 7.3-4.67 4.55 0 7.72 3.59 7.72 8.72 0 1.79-.67 3.78-1.98 5.9-.44.7-.22 1.63.48 2.07.71.44 1.63.22 2.07-.48 1.61-2.6 2.43-5.12 2.43-7.48 0-6.79-4.51-11.72001-10.72-11.72001-2.35 0-5.61.8-8.56 4.32001-2.94-3.53001-6.21-4.32001-8.56-4.32001-6.20999 0-10.71999 4.93001-10.71999 11.72001 0 10.95 17.75999 21.62 18.50999 22.07.24.14.5.21.77.21s.53-.07.77-.21c.06-.04 1.58-.94 3.74-2.48.67-.48.83-1.42.35-2.09s-1.42-.83-2.09-.35z"/></g></svg>