<svg width="32" height="32" viewBox="0 0 32 32" fill="none" xmlns="http://www.w3.org/2000/svg">
<path d="M27.9294 11.0733C27.916 10.0634 27.7269 9.06364 27.3708 8.11861C27.0619 7.32148 26.5901 6.59754 25.9857 5.99305C25.3812 5.38856 24.6572 4.91681 23.8601 4.60794C22.9272 4.25775 21.9417 4.0684 20.9454 4.04794C19.6628 3.99061 19.2561 3.97461 16.0001 3.97461C12.7441 3.97461 12.3268 3.97461 11.0534 4.04794C10.0576 4.06855 9.07256 4.2579 8.14009 4.60794C7.34284 4.9166 6.61879 5.38827 6.01427 5.99279C5.40975 6.5973 4.93808 7.32135 4.62943 8.11861C4.27854 9.05079 4.08959 10.0361 4.07076 11.0319C4.01343 12.3159 3.99609 12.7226 3.99609 15.9786C3.99609 19.2346 3.99609 19.6506 4.07076 20.9253C4.09076 21.9226 4.27876 22.9066 4.62943 23.8413C4.9386 24.6383 5.41062 25.362 6.01534 25.9663C6.62006 26.5706 7.34418 27.042 8.14143 27.3506C9.07134 27.7149 10.0566 27.9178 11.0548 27.9506C12.3388 28.0079 12.7454 28.0253 16.0014 28.0253C19.2574 28.0253 19.6748 28.0253 20.9481 27.9506C21.9443 27.931 22.9299 27.7421 23.8628 27.3919C24.6597 27.0827 25.3834 26.6108 25.9879 26.0064C26.5923 25.402 27.0642 24.6782 27.3734 23.8813C27.7241 22.9479 27.9121 21.9639 27.9321 20.9653C27.9894 19.6826 28.0068 19.2759 28.0068 16.0186C28.0041 12.7626 28.0041 12.3493 27.9294 11.0733ZM15.9921 22.1359C12.5868 22.1359 9.82809 19.3773 9.82809 15.9719C9.82809 12.5666 12.5868 9.80794 15.9921 9.80794C17.6269 9.80794 19.1947 10.4574 20.3507 11.6133C21.5067 12.7693 22.1561 14.3371 22.1561 15.9719C22.1561 17.6067 21.5067 19.1746 20.3507 20.3305C19.1947 21.4865 17.6269 22.1359 15.9921 22.1359ZM22.4014 11.0173C22.2126 11.0175 22.0256 10.9804 21.8512 10.9082C21.6767 10.8361 21.5182 10.7302 21.3847 10.5967C21.2512 10.4632 21.1453 10.3047 21.0731 10.1302C21.001 9.95573 20.9639 9.76875 20.9641 9.57994C20.9641 9.39128 21.0013 9.20446 21.0735 9.03015C21.1457 8.85585 21.2515 8.69747 21.3849 8.56407C21.5183 8.43066 21.6767 8.32484 21.851 8.25264C22.0253 8.18044 22.2121 8.14328 22.4008 8.14328C22.5894 8.14328 22.7762 8.18044 22.9506 8.25264C23.1249 8.32484 23.2832 8.43066 23.4166 8.56407C23.55 8.69747 23.6559 8.85585 23.7281 9.03015C23.8003 9.20446 23.8374 9.39128 23.8374 9.57994C23.8374 10.3746 23.1948 11.0173 22.4014 11.0173Z" fill="#282123" fill-opacity="0.3"/>
<path d="M15.9923 19.9758C18.2036 19.9758 19.9963 18.1831 19.9963 15.9718C19.9963 13.7604 18.2036 11.9678 15.9923 11.9678C13.7809 11.9678 11.9883 13.7604 11.9883 15.9718C11.9883 18.1831 13.7809 19.9758 15.9923 19.9758Z" fill="#282123" fill-opacity="0.3"/>
</svg>
