<svg width="23" height="28" viewBox="0 0 23 28" fill="none" xmlns="http://www.w3.org/2000/svg">
<path d="M15.8824 17.3529C15.8824 19.8185 13.8774 21.8235 11.4118 21.8235C9.33412 21.8235 7.59953 20.3929 7.09994 18.4706H9.17653C9.79459 18.4706 10.2942 17.9699 10.2942 17.3529C10.2942 16.736 9.79459 16.2353 9.17653 16.2353H7.09994C7.59953 14.3129 9.33412 12.8824 11.4118 12.8824C13.8774 12.8824 15.8824 14.8874 15.8824 17.3529ZM22.5883 6.17647V21.8235C22.5883 24.9049 20.0814 27.4118 17.0001 27.4118H5.82359C2.74223 27.4118 0.235352 24.9049 0.235352 21.8235V6.17647C0.235352 3.09512 2.74223 0.588234 5.82359 0.588234H17.0001C20.0814 0.588234 22.5883 3.09512 22.5883 6.17647ZM9.17653 5.61765C9.17653 6.54306 9.92759 7.29412 10.853 7.29412C11.7784 7.29412 12.5295 6.54306 12.5295 5.61765C12.5295 4.69223 11.7784 3.94118 10.853 3.94118C9.92759 3.94118 9.17653 4.69223 9.17653 5.61765ZM5.26476 7.29412C6.19018 7.29412 6.94123 6.54306 6.94123 5.61765C6.94123 4.69223 6.19018 3.94118 5.26476 3.94118C4.33935 3.94118 3.58829 4.69223 3.58829 5.61765C3.58829 6.54306 4.33935 7.29412 5.26476 7.29412ZM18.1177 17.3529C18.1177 13.6546 15.1101 10.6471 11.4118 10.6471C7.71353 10.6471 4.70594 13.6546 4.70594 17.3529C4.70594 21.0512 7.71353 24.0588 11.4118 24.0588C15.1101 24.0588 18.1177 21.0512 18.1177 17.3529Z" fill="#1380FF"/>
</svg>
