<svg fill="none" height="48" viewBox="0 0 48 48" width="48" xmlns="http://www.w3.org/2000/svg"><g fill="#1380FF"><path d="m18.53 26.84-.17-.09c-.69-.35-1.26-.92-1.61-1.61l-.09-.17c-.35-.68-1.31-.68-1.66 0l-.09.17c-.35.69-.92 1.26-1.61 1.61l-.17.09c-.68.35-.68 1.31 0 1.66l.17.09c.69.35 1.26.92 1.61 1.61l.09.17c.35.68 1.31.68 1.66 0l.09-.17c.35-.69.92-1.26 1.61-1.61l.17-.09c.68-.35.68-1.31 0-1.66z"/><path d="m22.78 22.33.16-.32c.51-1 1.31-1.8 2.31-2.31l.32-.16c1.08-.55 1.75-1.65 1.75-2.86s-.67-2.31-1.75-2.87l-.32-.16c-1-.51-1.8-1.31-2.31-2.31l-.16-.32c-.55-1.08-1.65-1.75-2.86-1.75s-2.31.67-2.87 1.75l-.16.32c-.51 1-1.31 1.8-2.31 2.31l-.32.16c-1.08.55-1.75 1.65-1.75 2.87s.67 2.31 1.75 2.87l.32.16c1 .51 1.8 1.31 2.31 2.31l.16.32c.55 1.08 1.65 1.75 2.87 1.75s2.31-.67 2.87-1.75zm-2.51-1.68-.16.32s-.06.12-.19.12-.18-.09-.19-.12l-.16-.32c-.8-1.57-2.05-2.82-3.62-3.62l-.32-.16s-.12-.06-.12-.19.09-.18.12-.19l.32-.16c1.57-.8 2.82-2.05 3.62-3.62l.16-.32s.06-.12.19-.12.18.08.19.12l.16.32c.8 1.57 2.05 2.82 3.62 3.62l.32.16s.12.06.12.19-.09.18-.12.19l-.32.16c-1.57.8-2.82 2.05-3.62 3.62z"/><path d="m18.53 34.17-.17-.09c-.69-.35-1.26-.92-1.61-1.61l-.09-.17c-.35-.68-1.31-.68-1.66 0l-.09.17c-.35.69-.92 1.26-1.61 1.61l-.17.09c-.68.35-.68 1.31 0 1.66l.17.09c.69.35 1.26.92 1.61 1.61l.09.17c.35.68 1.31.68 1.66 0l.09-.17c.35-.69.92-1.26 1.61-1.61l.17-.09c.68-.35.68-1.31 0-1.66z"/><path d="m33 26.17h-11c-.83 0-1.5.67-1.5 1.5s.67 1.5 1.5 1.5h11c.83 0 1.5-.67 1.5-1.5s-.67-1.5-1.5-1.5z"/><path d="m33 33.5h-11c-.83 0-1.5.67-1.5 1.5s.67 1.5 1.5 1.5h11c.83 0 1.5-.67 1.5-1.5s-.67-1.5-1.5-1.5z"/><path d="m33 18.83h-3c-.83 0-1.5.67-1.5 1.5s.67 1.5 1.5 1.5h3c.83 0 1.5-.67 1.5-1.5s-.67-1.5-1.5-1.5z"/><path d="m33 11.5h-3c-.83 0-1.5.67-1.5 1.5s.67 1.5 1.5 1.5h3c.83 0 1.5-.67 1.5-1.5s-.67-1.5-1.5-1.5z"/><path d="m31 4.5h-14c-6.34 0-11.5 5.16-11.5 11.5v16c0 6.34 5.16 11.5 11.5 11.5h14c6.34 0 11.5-5.16 11.5-11.5v-16c0-6.34-5.16-11.5-11.5-11.5zm8.5 27.5c0 4.69-3.81 8.5-8.5 8.5h-14c-4.69 0-8.5-3.81-8.5-8.5v-16c0-4.69 3.81-8.5 8.5-8.5h14c4.69 0 8.5 3.81 8.5 8.5z"/></g></svg>