<svg fill="none" height="48" viewBox="0 0 48 48" width="48" xmlns="http://www.w3.org/2000/svg"><g fill="#000"><path d="m42.49 9.38001-.17-.09c-.69-.35-1.26-.92-1.61-1.61l-.09-.17c-.35-.68-1.31-.68-1.66 0l-.09.17c-.35.69-.92 1.26-1.61 1.61l-.17.09c-.68.35-.68 1.30999 0 1.65999l.17.09c.69.35 1.26.92 1.61 1.61l.09.17c.35.68 1.31.68 1.66 0l.09-.17c.35-.69.92-1.26 1.61-1.61l.17-.09c.68-.35.68-1.30999 0-1.65999z"/><path d="m38.29 25.34-.24-.12c-.97-.5-1.76-1.29-2.26-2.26l-.12-.24c-.48-.95-1.84-.95-2.33 0l-.12.24c-.5.97-1.29 1.76-2.26 2.26l-.24.12c-.95.48-.95 1.84 0 2.33l.24.12c.97.5 1.76 1.29 2.26 2.26l.12.24c.48.95 1.84.95 2.33 0l.12-.24c.5-.97 1.29-1.76 2.26-2.26l.24-.12c.95-.48.95-1.84 0-2.33z"/><path d="m32.26 17.11.32-.16c1.08-.55 1.75-1.65 1.75-2.87s-.67-2.31-1.75-2.87l-.32-.16c-1-.51-1.8-1.30999-2.31-2.30999l-.16-.32c-.55-1.08-1.65-1.75-2.86-1.75s-2.31.67-2.87 1.75l-.16.32c-.51 1-1.31 1.79999-2.31 2.30999l-.32.16c-1.08.55-1.75 1.65-1.75 2.86s.67 2.31 1.75 2.87l.32.16c1 .51 1.8 1.31 2.31 2.31l.16.32c.55 1.08 1.65 1.75 2.87 1.75s2.31-.67 2.87-1.75l.16-.32c.51-1 1.31-1.8 2.31-2.31zm-4.99.95-.16.32s-.06.12-.19.12-.18-.09-.19-.12l-.16-.32c-.8-1.57-2.05-2.82-3.62-3.62l-.32-.16s-.12-.06-.12-.19.09-.18.12-.19l.32-.16c1.57-.8 2.82-2.05 3.62-3.62l.16-.31999s.06-.12.19-.12.18.08.19.12l.16.31999c.8 1.57 2.05 2.82 3.62 3.62l.32.16s.12.06.12.19-.09.18-.12.19l-.32.16c-1.57.8-2.82 2.05-3.62 3.62z"/><path d="m17.25 19.24c-1.1-1.1-2.65-1.51-4.16-1.1-1.5.41-2.63 1.55-3.02 3.06l-2.73001 10.52-1.5 1.5c-2.18 2.18-2.18 5.74 0 7.92l1.02 1.02c1.09 1.09 2.53 1.64 3.96001 1.64 1.43 0 2.87-.55 3.96-1.64l1.53-1.53 10.27-3.16c1.45-.45 2.53-1.59 2.9-3.06s-.06-2.99-1.13-4.06zm-4.58 20.8c-1.01 1.01-2.67001 1.01-3.68001 0l-1.02-1.02c-1.01-1.01-1.01-2.67 0-3.68l.62-.62 4.70001 4.7zm13.91-6.35c-.05.21-.24.73-.87.92l-9.77 3-5.58-5.58 2.61-10.08c.17-.65.69-.86.91-.92.21-.06.77-.14 1.25.33l11.11 11.11c.46.46.39 1.01.34 1.22z"/></g></svg>