<svg fill="none" height="48" viewBox="0 0 48 48" width="48" xmlns="http://www.w3.org/2000/svg"><g fill="#1380FF"><path d="m18.71 11.66.24.12c.97.5 1.76 1.29 2.26 2.26l.12.24c.48.95 1.84.95 2.33 0l.12-.24c.5-.97 1.29-1.76 2.26-2.26l.24-.12c.95-.48.95-1.84 0-2.33l-.24-.12c-.97-.5-1.76-1.29-2.26-2.26l-.12-.24c-.48-.95-1.84-.95-2.33 0l-.12.24c-.5.97-1.29 1.76-2.26 2.26l-.24.12c-.95.48-.95 1.84 0 2.33z"/><path d="m20.6 21.03c.98-.5.98-1.89 0-2.39l-1.46-.75c-1.3-.67-2.36-1.73-3.03-3.03l-.75-1.46c-.5-.98-1.89-.98-2.39 0l-.75 1.46c-.67 1.3-1.73 2.36-3.03001 3.03l-1.45999.75c-.98.5-.98 1.89 0 2.39l1.45999.75c1.30001.67 2.36001 1.73 3.03001 3.03l.75 1.46c.5.98 1.89.98 2.39 0l.75-1.46c.67-1.3 1.73-2.36 3.03-3.03z"/><path d="m39.36 27.01-1.48-.76c-1.79-.91-3.22-2.34-4.13-4.13l-.76-1.48c-.67-1.32-2.01-2.14-3.49-2.14s-2.82.82-3.49 2.14l-.76 1.48c-.91 1.79-2.34 3.22-4.13 4.13l-1.48.76c-1.32.67-2.14 2.01-2.14 3.49s.82 2.82 2.14 3.49l1.48.76c1.79.91 3.22 2.34 4.13 4.13l.76 1.48c.67 1.32 2.01 2.14 3.49 2.14s2.82-.82 3.49-2.14l.76-1.48c.91-1.79 2.34-3.22 4.13-4.13l1.48-.76c1.32-.67 2.14-2.01 2.14-3.49s-.82-2.82-2.14-3.49zm-1.36 4.31-1.48.76c-2.36 1.2-4.24 3.08-5.44 5.44l-.76 1.48c-.23.45-.65.5-.82.5s-.59-.05-.82-.5l-.76-1.48c-1.2-2.36-3.08-4.24-5.44-5.44l-1.48-.76c-.45-.23-.5-.65-.5-.82s.05-.59.5-.82l1.48-.76c2.36-1.2 4.24-3.08 5.44-5.44l.76-1.48c.23-.45.65-.5.82-.5s.59.05.82.5l.76 1.48c1.2 2.36 3.08 4.24 5.44 5.44l1.48.76c.45.23.5.65.5.82s-.05.59-.5.82z"/></g></svg>