<svg width="20" height="20" viewBox="0 0 20 20" fill="none" xmlns="http://www.w3.org/2000/svg">
<path d="M10 0.205078C4.38 0.205078 0.75 3.44508 0.75 8.45508C0.75 13.4651 4.38 16.7051 10 16.7051C10.04 16.7051 10.08 16.7051 10.12 16.7051C10.08 17.1151 9.98 17.5651 9.82 18.0501C9.64 18.5901 9.82 19.1651 10.265 19.5151C10.51 19.7051 10.795 19.8001 11.08 19.8001C11.325 19.8001 11.57 19.7301 11.79 19.5901C13.615 18.4301 14.745 17.0751 15.165 15.5551C17.765 14.1701 19.245 11.6051 19.245 8.46008C19.245 3.45008 15.615 0.210078 9.995 0.210078L10 0.205078ZM14.195 14.3651C13.98 14.4651 13.83 14.6651 13.785 14.8951C13.565 16.0201 12.735 17.1101 11.385 18.0601C11.605 17.2601 11.685 16.5201 11.62 15.8551C11.58 15.4701 11.255 15.1751 10.875 15.1751C10.855 15.1751 10.84 15.1751 10.82 15.1751C10.555 15.1951 10.285 15.2051 10.005 15.2051C5.225 15.2051 2.255 12.6201 2.255 8.45508C2.255 4.29008 5.225 1.70508 10.005 1.70508C14.785 1.70508 17.755 4.29008 17.755 8.45508C17.755 11.1701 16.495 13.2651 14.2 14.3651H14.195Z" fill="#1380FF"/>
<path d="M8.87 8.15508L8.805 8.12508C8.555 7.99508 8.35 7.79008 8.22 7.54008L8.19 7.47508C8.065 7.23008 7.715 7.23008 7.59 7.47508L7.56 7.54008C7.43 7.79008 7.225 7.99508 6.975 8.12508L6.91 8.15508C6.665 8.28008 6.665 8.63008 6.91 8.75508L6.975 8.78508C7.225 8.91508 7.43 9.12008 7.56 9.37008L7.59 9.43508C7.715 9.68008 8.065 9.68008 8.19 9.43508L8.22 9.37008C8.35 9.12008 8.555 8.91508 8.805 8.78508L8.87 8.75508C9.115 8.63008 9.115 8.28008 8.87 8.15508Z" fill="#1380FF"/>
<path d="M6 8.03508L5.91 7.99008C5.56 7.81008 5.27 7.52508 5.09 7.17008L5.045 7.08008C4.87 6.73508 4.38 6.73508 4.205 7.08008L4.16 7.17008C3.98 7.52008 3.695 7.81008 3.34 7.99008L3.25 8.03508C2.905 8.21008 2.905 8.70008 3.25 8.87508L3.34 8.92008C3.69 9.10008 3.98 9.38508 4.16 9.74008L4.205 9.83008C4.38 10.1751 4.87 10.1751 5.045 9.83008L5.09 9.74008C5.27 9.39008 5.555 9.10008 5.91 8.92008L6 8.87508C6.345 8.70008 6.345 8.21008 6 8.03508Z" fill="#1380FF"/>
<path d="M16.29 7.02508L16.13 6.94508C15.63 6.69008 15.23 6.29008 14.975 5.79008L14.895 5.63008C14.62 5.09008 14.07 4.75508 13.465 4.75508C12.86 4.75508 12.31 5.09008 12.03 5.63008L11.95 5.79008C11.695 6.29008 11.295 6.69008 10.795 6.94508L10.635 7.02508C10.095 7.30008 9.76 7.85008 9.76 8.46008C9.76 9.07008 10.095 9.61508 10.635 9.89508L10.795 9.97508C11.295 10.2301 11.695 10.6301 11.95 11.1301L12.03 11.2901C12.305 11.8301 12.855 12.1651 13.465 12.1651C14.075 12.1651 14.62 11.8301 14.9 11.2901L14.98 11.1301C15.235 10.6301 15.635 10.2301 16.135 9.97508L16.295 9.89508C16.835 9.62008 17.17 9.07008 17.17 8.46508C17.17 7.86008 16.835 7.31008 16.295 7.03008L16.29 7.02508ZM15.61 8.55508L15.45 8.63508C14.665 9.03508 14.04 9.66008 13.64 10.4451L13.56 10.6051C13.56 10.6051 13.53 10.6651 13.465 10.6651C13.4 10.6651 13.375 10.6201 13.37 10.6051L13.29 10.4451C12.89 9.66008 12.265 9.03508 11.48 8.63508L11.32 8.55508C11.32 8.55508 11.26 8.52508 11.26 8.46008C11.26 8.39508 11.305 8.37008 11.32 8.36508L11.48 8.28508C12.265 7.88508 12.89 7.26008 13.29 6.47508L13.37 6.31508C13.37 6.31508 13.4 6.25508 13.465 6.25508C13.53 6.25508 13.555 6.29508 13.56 6.31508L13.64 6.47508C14.04 7.26008 14.665 7.88508 15.45 8.28508L15.61 8.36508C15.61 8.36508 15.67 8.39508 15.67 8.46008C15.67 8.52508 15.625 8.55008 15.61 8.55508Z" fill="#1380FF"/>
</svg>
