<svg width="32" height="32" viewBox="0 0 32 32" fill="none" xmlns="http://www.w3.org/2000/svg">
<path d="M28.7911 9.60434C28.6392 9.04087 28.3424 8.52701 27.9303 8.11389C27.5181 7.70078 27.0049 7.40282 26.4418 7.24967C24.3538 6.67634 16.0004 6.667 16.0004 6.667C16.0004 6.667 7.64844 6.65767 5.55911 7.20567C4.99634 7.36586 4.4842 7.66804 4.07186 8.08318C3.65952 8.49832 3.36082 9.0125 3.20444 9.57634C2.65377 11.6643 2.64844 15.995 2.64844 15.995C2.64844 15.995 2.64311 20.347 3.18977 22.4137C3.49644 23.5563 4.39644 24.459 5.54044 24.767C7.64977 25.3403 15.9804 25.3497 15.9804 25.3497C15.9804 25.3497 24.3338 25.359 26.4218 24.8123C26.9851 24.6595 27.4988 24.3622 27.912 23.9499C28.3252 23.5376 28.6236 23.0246 28.7778 22.4617C29.3298 20.375 29.3338 16.0457 29.3338 16.0457C29.3338 16.0457 29.3604 11.6923 28.7911 9.60434ZM13.3284 20.007L13.3351 12.007L20.2778 16.0137L13.3284 20.007Z" fill="#282123" fill-opacity="0.3"/>
</svg>
